<?xml version="1.0" standalone="no"?>
<!DOCTYPE svg PUBLIC "-//W3C//DTD SVG 20010904//EN"
 "http://www.w3.org/TR/2001/REC-SVG-20010904/DTD/svg10.dtd">
<svg version="1.0" xmlns="http://www.w3.org/2000/svg"
 width="830.000000pt" height="814.000000pt" viewBox="0 0 830.000000 814.000000"
 preserveAspectRatio="xMidYMid meet">

<g transform="translate(0.000000,814.000000) scale(0.100000,-0.100000)"
fill="#000000" stroke="none">
<path d="M3950 6550 c-880 -64 -1672 -595 -2071 -1390 -117 -232 -203 -504
-246 -770 -28 -176 -25 -568 5 -745 56 -325 177 -657 345 -943 179 -306 504
-631 827 -828 517 -314 1142 -437 1730 -338 134 22 340 76 456 119 109 40 390
174 433 206 l28 20 119 -123 c66 -68 147 -151 179 -186 l60 -62 445 2 445 3
-372 384 -372 385 30 35 c197 235 279 357 389 583 97 201 141 318 190 512 148
582 86 1182 -179 1721 -361 734 -1050 1252 -1843 1384 -217 36 -392 45 -598
31z m388 -641 c602 -65 1122 -399 1435 -920 101 -168 183 -368 221 -540 93
-421 46 -862 -133 -1244 -51 -109 -168 -283 -268 -401 l-63 -74 -271 273
c-150 149 -368 373 -486 497 -252 264 -285 295 -378 362 -252 180 -621 274
-935 239 -340 -38 -642 -180 -838 -395 -94 -103 -173 -240 -207 -358 -9 -34
-22 -58 -30 -58 -17 0 -88 220 -115 357 -62 314 -35 716 66 990 237 642 743
1093 1385 1237 199 44 419 57 617 35z m-676 -2323 c91 -18 180 -53 250 -100
52 -34 513 -508 926 -950 l183 -197 -84 -39 c-47 -22 -138 -58 -203 -79 -389
-130 -788 -131 -1182 -5 -136 44 -364 155 -448 218 -107 80 -188 196 -240 341
-25 71 -25 267 0 350 32 106 85 194 167 276 62 63 93 85 170 122 52 25 119 50
149 56 30 6 64 13 75 15 47 9 169 5 237 -8z"/>
</g>
</svg>
